<svg xmlns="http://www.w3.org/2000/svg" xmlns:xlink="http://www.w3.org/1999/xlink" width="1080" viewBox="0 0 810 809.999993" height="1080" preserveAspectRatio="xMidYMid meet"><defs><clipPath id="43da841853"><path d="M 30.351562 381 L 113 381 L 113 631 L 30.351562 631 Z M 30.351562 381 " clip-rule="nonzero"></path></clipPath><clipPath id="71fafda342"><path d="M 109 636 L 661 636 L 661 795.84375 L 109 795.84375 Z M 109 636 " clip-rule="nonzero"></path></clipPath><clipPath id="0f22aefea0"><path d="M 700 200 L 786.351562 200 L 786.351562 636 L 700 636 Z M 700 200 " clip-rule="nonzero"></path></clipPath></defs><path fill="#203f78" d="M 666.339844 163.824219 C 666.339844 140.285156 647.1875 121.132812 623.648438 121.132812 C 600.113281 121.132812 580.964844 140.285156 580.964844 163.824219 C 580.964844 187.367188 600.113281 206.519531 623.648438 206.519531 C 647.1875 206.519531 666.339844 187.367188 666.339844 163.824219 Z M 600.8125 163.824219 C 600.8125 151.226562 611.054688 140.980469 623.648438 140.980469 C 636.246094 140.980469 646.492188 151.226562 646.492188 163.824219 C 646.492188 176.421875 636.246094 186.675781 623.648438 186.675781 C 611.054688 186.675781 600.8125 176.421875 600.8125 163.824219 Z M 600.8125 163.824219 " fill-opacity="1" fill-rule="nonzero"></path><path fill="#203f78" d="M 623.644531 89.023438 C 588.542969 89.023438 558.957031 113.0625 550.464844 145.539062 C 506.714844 122.484375 457.746094 110.324219 407.929688 110.324219 C 314.742188 110.324219 227.773438 152.023438 169.324219 224.726562 C 164.136719 231.171875 159.207031 237.878906 154.554688 244.734375 C 142.390625 236.378906 127.675781 231.476562 111.839844 231.476562 C 70.136719 231.476562 36.207031 265.40625 36.207031 307.109375 C 36.207031 343.167969 88.710938 406.09375 101.996094 421.441406 C 103.296875 501.484375 135.144531 576.539062 191.980469 633.148438 C 249.726562 690.664062 326.417969 722.34375 407.929688 722.34375 C 576.660156 722.34375 713.9375 585.066406 713.9375 416.332031 C 713.9375 354.449219 695.667969 295.148438 661.042969 244.339844 C 679.433594 219.148438 699.289062 186.824219 699.289062 164.65625 C 699.289062 122.949219 665.355469 89.023438 623.644531 89.023438 Z M 623.644531 108.867188 C 654.414062 108.867188 679.441406 133.894531 679.441406 164.652344 C 679.441406 188.101562 644.117188 235.355469 623.644531 259.914062 C 603.179688 235.359375 567.863281 188.101562 567.863281 164.652344 C 567.863281 133.894531 592.886719 108.867188 623.644531 108.867188 Z M 503.03125 258.878906 C 498.089844 246.859375 492.605469 234.808594 486.570312 222.730469 C 465.894531 181.367188 443.433594 149.316406 429.40625 131.003906 C 471.148438 134.136719 511.714844 146.363281 548.117188 166.855469 C 549.292969 188.089844 567.035156 217.613281 584.222656 241.535156 C 561.324219 248.511719 536.0625 254.078125 508.851562 258.082031 C 506.921875 258.363281 504.972656 258.613281 503.03125 258.878906 Z M 693.902344 426.261719 C 691.804688 487.371094 670.460938 543.671875 635.75 589.285156 C 602.082031 573.796875 559.4375 561.96875 511.753906 554.960938 C 511.34375 554.902344 510.921875 554.851562 510.511719 554.789062 C 524.523438 516.121094 534.699219 472.59375 535.992188 426.261719 Z M 490 552.148438 C 485.597656 551.652344 481.15625 551.1875 476.675781 550.769531 C 480.914062 540.835938 483.570312 531.40625 483.570312 523.335938 C 483.570312 481.632812 449.636719 447.703125 407.929688 447.703125 C 366.226562 447.703125 332.296875 481.632812 332.296875 523.335938 C 332.296875 531.40625 334.957031 540.835938 339.191406 550.769531 C 334.707031 551.1875 330.265625 551.648438 325.855469 552.148438 C 311.65625 514.296875 301.097656 471.484375 299.726562 426.261719 L 516.132812 426.261719 C 514.761719 471.484375 504.203125 514.296875 490 552.148438 Z M 333.503906 571.28125 C 338.554688 570.75 343.65625 570.285156 348.792969 569.867188 C 367.457031 602.597656 395.871094 635.203125 400.496094 640.425781 L 407.925781 648.820312 L 415.355469 640.429688 C 419.980469 635.207031 448.398438 602.597656 467.070312 569.867188 C 472.207031 570.289062 477.304688 570.75 482.355469 571.28125 C 455.890625 633.726562 421.4375 680.007812 407.929688 696.910156 C 394.425781 680.007812 359.972656 633.726562 333.503906 571.28125 Z M 407.914062 618.613281 C 383.78125 589.757812 352.144531 544.742188 352.144531 523.335938 C 352.144531 492.578125 377.167969 467.554688 407.929688 467.554688 C 438.695312 467.554688 463.726562 492.578125 463.726562 523.335938 C 463.726562 546.789062 428.382812 594.058594 407.914062 618.613281 Z M 304.117188 277.714844 C 304.558594 277.78125 305.011719 277.835938 305.453125 277.898438 C 289.605469 321.445312 281.035156 364.460938 279.863281 406.414062 L 134.1875 406.414062 C 154.5 381.132812 187.484375 335.683594 187.484375 307.109375 C 187.484375 288.449219 180.675781 271.359375 169.429688 258.15625 C 172.78125 253.117188 176.304688 248.164062 179.976562 243.335938 C 213.636719 258.847656 256.332031 270.691406 304.117188 277.714844 Z M 279.871094 426.261719 C 281.160156 472.59375 291.335938 516.121094 305.347656 554.792969 C 304.941406 554.851562 304.523438 554.902344 304.117188 554.960938 C 256.433594 561.96875 213.816406 573.785156 180.1875 589.25 C 145.441406 543.632812 124.054688 487.335938 121.964844 426.261719 Z M 299.726562 406.414062 C 301.09375 361.164062 311.636719 318.363281 325.828125 280.515625 C 352.457031 283.542969 379.96875 285.09375 407.929688 285.09375 C 435.902344 285.09375 463.417969 283.542969 490.035156 280.515625 C 504.226562 318.359375 514.765625 361.160156 516.132812 406.414062 Z M 407.929688 265.246094 C 382.605469 265.246094 357.664062 263.945312 333.464844 261.398438 C 359.808594 199.21875 394.109375 153.054688 407.929688 135.761719 C 421.746094 153.054688 456.054688 199.21875 482.398438 261.398438 C 458.203125 263.945312 433.265625 265.246094 407.929688 265.246094 Z M 386.464844 130.988281 C 372.441406 149.300781 349.96875 181.359375 329.289062 222.730469 C 323.253906 234.808594 317.769531 246.859375 312.828125 258.878906 C 310.890625 258.613281 308.933594 258.363281 307.007812 258.082031 C 263.289062 251.652344 224.210938 241.117188 193.007812 227.429688 C 242.703125 170.851562 311.738281 136.523438 386.464844 130.988281 Z M 111.839844 251.324219 C 142.605469 251.324219 167.636719 276.347656 167.636719 307.105469 C 167.636719 330.554688 132.308594 377.808594 111.839844 402.367188 C 91.371094 377.8125 56.054688 330.558594 56.054688 307.105469 C 56.054688 276.347656 81.078125 251.324219 111.839844 251.324219 Z M 193.21875 605.15625 C 224.386719 591.511719 263.390625 581.007812 307.019531 574.59375 C 308.886719 574.316406 310.800781 574.074219 312.691406 573.808594 C 336.507812 631.953125 367.65625 677.238281 386.445312 701.683594 C 309.746094 695.945312 241.289062 659.730469 193.21875 605.15625 Z M 429.417969 701.6875 C 448.203125 677.242188 479.355469 631.957031 503.171875 573.8125 C 505.066406 574.074219 506.980469 574.320312 508.855469 574.597656 C 552.492188 581.007812 591.523438 591.523438 622.722656 605.195312 C 574.679688 659.765625 506.226562 695.960938 429.417969 701.6875 Z M 693.914062 406.414062 L 535.996094 406.414062 C 534.828125 364.460938 526.257812 321.445312 510.40625 277.898438 C 510.851562 277.835938 511.296875 277.78125 511.742188 277.714844 C 542.652344 273.167969 571.222656 266.652344 596.859375 258.363281 C 606.3125 270.441406 614 279.242188 616.21875 281.746094 L 623.648438 290.140625 L 631.078125 281.746094 C 633.125 279.433594 639.851562 271.730469 648.320312 261.050781 C 676.511719 304.542969 692.152344 354.359375 693.914062 406.414062 Z M 693.914062 406.414062 " fill-opacity="1" fill-rule="nonzero"></path><path fill="#203f78" d="M 552.449219 90.925781 C 545.699219 87.738281 538.746094 84.722656 531.789062 81.964844 L 539.101562 63.515625 C 546.449219 66.429688 553.789062 69.609375 560.917969 72.976562 Z M 510.597656 74.328125 C 503.488281 72.019531 496.210938 69.910156 488.96875 68.054688 L 493.890625 48.828125 C 501.539062 50.789062 509.226562 53.015625 516.730469 55.457031 Z M 466.984375 63.160156 C 459.652344 61.769531 452.167969 60.59375 444.738281 59.667969 L 447.191406 39.976562 C 455.035156 40.953125 462.941406 42.195312 470.683594 43.660156 Z M 422.308594 57.589844 C 415.03125 57.144531 407.636719 56.917969 400.339844 56.917969 L 399.769531 56.917969 L 399.769531 37.070312 L 400.339844 37.070312 C 408.039062 37.070312 415.839844 37.308594 423.515625 37.777344 Z M 422.308594 57.589844 " fill-opacity="1" fill-rule="nonzero"></path><path fill="#203f78" d="M 153.398438 155.351562 C 214.683594 97.113281 294.433594 62.46875 379.167969 57.535156 L 378.015625 37.722656 C 288.324219 42.945312 203.925781 79.703125 139.164062 141.492188 L 137.089844 105.878906 L 117.277344 107.03125 L 121.359375 177.097656 L 191.605469 173.003906 L 190.453125 153.191406 Z M 153.398438 155.351562 " fill-opacity="1" fill-rule="nonzero"></path><g clip-path="url(#43da841853)"><path fill="#203f78" d="M 95.648438 630.152344 C 91.199219 623.636719 86.90625 616.886719 82.878906 610.101562 L 99.945312 599.972656 C 103.757812 606.402344 107.832031 612.792969 112.042969 618.972656 Z M 71.394531 589.285156 C 67.796875 582.253906 64.386719 575.023438 61.246094 567.789062 L 79.453125 559.890625 C 82.425781 566.742188 85.660156 573.589844 89.066406 580.253906 Z M 52.476562 545.691406 C 49.800781 538.269531 47.324219 530.660156 45.125 523.085938 L 64.183594 517.550781 C 66.265625 524.722656 68.609375 531.925781 71.144531 538.960938 Z M 39.21875 500.0625 C 37.503906 492.371094 36.011719 484.515625 34.785156 476.714844 L 54.390625 473.625 C 55.554688 481.015625 56.96875 488.457031 58.59375 495.742188 Z M 31.828125 453.136719 C 31.09375 445.296875 30.59375 437.320312 30.351562 429.429688 L 50.1875 428.8125 C 50.417969 436.292969 50.890625 443.855469 51.585938 451.285156 Z M 50.179688 406.277344 L 30.339844 405.667969 C 30.582031 397.765625 31.078125 389.785156 31.808594 381.945312 L 51.570312 383.789062 C 50.875 391.21875 50.40625 398.785156 50.179688 406.277344 Z M 50.179688 406.277344 " fill-opacity="1" fill-rule="nonzero"></path></g><g clip-path="url(#71fafda342)"><path fill="#203f78" d="M 590.367188 680.367188 L 588.03125 700.074219 L 622.773438 704.191406 C 561.15625 750.320312 485.445312 775.605469 408.171875 775.605469 C 296.535156 775.605469 193.253906 724.917969 124.816406 636.535156 L 109.121094 648.6875 C 143.707031 693.347656 188.597656 730.296875 238.941406 755.546875 C 291.746094 782.027344 348.683594 795.453125 408.171875 795.453125 C 490.582031 795.453125 571.316406 768.199219 636.722656 718.53125 L 632.28125 756.003906 L 651.988281 758.339844 L 660.246094 688.644531 Z M 590.367188 680.367188 " fill-opacity="1" fill-rule="nonzero"></path></g><g clip-path="url(#0f22aefea0)"><path fill="#203f78" d="M 716.933594 635.566406 L 700.734375 624.101562 C 704.746094 618.4375 708.640625 612.574219 712.316406 606.679688 L 729.15625 617.183594 C 725.28125 623.402344 721.164062 629.589844 716.933594 635.566406 Z M 740.285156 598.113281 L 722.863281 588.613281 C 726.183594 582.519531 729.371094 576.246094 732.332031 569.960938 L 750.285156 578.425781 C 747.15625 585.058594 743.792969 591.683594 740.285156 598.113281 Z M 759.113281 558.179688 L 740.691406 550.785156 C 743.28125 544.332031 745.710938 537.726562 747.910156 531.152344 L 766.734375 537.449219 C 764.410156 544.390625 761.84375 551.363281 759.113281 558.179688 Z M 773.121094 516.300781 L 753.960938 511.125 C 755.773438 504.414062 757.410156 497.566406 758.820312 490.773438 L 778.25 494.816406 C 776.761719 501.988281 775.035156 509.214844 773.121094 516.300781 Z M 782.117188 473.070312 L 762.484375 470.175781 C 763.496094 463.300781 764.320312 456.304688 764.929688 449.390625 L 784.699219 451.136719 C 784.058594 458.433594 783.1875 465.8125 782.117188 473.070312 Z M 786.003906 429.085938 L 766.167969 428.492188 C 766.277344 424.804688 766.335938 421.085938 766.335938 417.441406 C 766.335938 414.183594 766.292969 410.859375 766.203125 407.550781 L 786.042969 407.007812 C 786.136719 410.496094 786.183594 414.011719 786.183594 417.449219 C 786.183594 421.285156 786.121094 425.199219 786.003906 429.085938 Z M 765.03125 386.671875 C 764.445312 379.746094 763.644531 372.757812 762.65625 365.902344 L 782.300781 363.074219 C 783.339844 370.304688 784.1875 377.679688 784.808594 384.988281 Z M 759.070312 345.3125 C 757.679688 338.511719 756.070312 331.667969 754.28125 324.964844 L 773.460938 319.851562 C 775.347656 326.929688 777.046875 334.15625 778.515625 341.335938 Z M 748.308594 304.933594 C 746.132812 298.351562 743.730469 291.742188 741.164062 285.285156 L 759.609375 277.957031 C 762.320312 284.777344 764.855469 291.753906 767.152344 298.703125 Z M 732.882812 266.089844 C 729.945312 259.796875 726.78125 253.511719 723.480469 247.40625 L 740.941406 237.972656 C 744.421875 244.417969 747.761719 251.050781 750.863281 257.691406 Z M 713.007812 229.308594 C 709.351562 223.394531 705.476562 217.515625 701.492188 211.84375 L 717.738281 200.441406 C 721.941406 206.425781 726.027344 212.625 729.886719 218.867188 Z M 713.007812 229.308594 " fill-opacity="1" fill-rule="nonzero"></path></g><path fill="#203f78" d="M 154.535156 306.28125 C 154.535156 282.738281 135.378906 263.585938 111.839844 263.585938 C 88.308594 263.585938 69.160156 282.738281 69.160156 306.28125 C 69.160156 329.824219 88.308594 348.972656 111.839844 348.972656 C 135.378906 348.972656 154.535156 329.824219 154.535156 306.28125 Z M 111.839844 329.128906 C 99.246094 329.128906 89.003906 318.878906 89.003906 306.28125 C 89.003906 293.683594 99.246094 283.433594 111.839844 283.433594 C 124.4375 283.433594 134.683594 293.683594 134.683594 306.28125 C 134.6875 318.878906 124.4375 329.128906 111.839844 329.128906 Z M 111.839844 329.128906 " fill-opacity="1" fill-rule="nonzero"></path><path fill="#203f78" d="M 407.929688 479.816406 C 384.394531 479.816406 365.246094 498.96875 365.246094 522.507812 C 365.246094 546.050781 384.394531 565.203125 407.929688 565.203125 C 431.46875 565.203125 450.621094 546.050781 450.621094 522.507812 C 450.621094 498.96875 431.46875 479.816406 407.929688 479.816406 Z M 407.929688 545.355469 C 395.339844 545.355469 385.09375 535.109375 385.09375 522.511719 C 385.09375 509.914062 395.339844 499.664062 407.929688 499.664062 C 420.527344 499.664062 430.773438 509.914062 430.773438 522.511719 C 430.773438 535.109375 420.527344 545.355469 407.929688 545.355469 Z M 407.929688 545.355469 " fill-opacity="1" fill-rule="nonzero"></path></svg>