<svg xmlns="http://www.w3.org/2000/svg" xmlns:xlink="http://www.w3.org/1999/xlink" width="1080" viewBox="0 0 810 809.999993" height="1080" preserveAspectRatio="xMidYMid meet"><defs><clipPath id="84812555d7"><path d="M 23.375 34.136719 L 775.625 34.136719 L 775.625 786.386719 L 23.375 786.386719 Z M 23.375 34.136719 " clip-rule="nonzero"></path></clipPath></defs><g clip-path="url(#84812555d7)"><path fill="#203f78" d="M 737.515625 110.894531 C 731.96875 141.757812 717.675781 169.550781 695.496094 190.925781 L 583.730469 302.691406 C 579.789062 306.632812 578.1875 312.980469 579.789062 318.523438 L 685.207031 669.648438 L 651.9375 702.917969 L 560.75 547.597656 C 536.167969 505.578125 506.039062 467.566406 471.96875 433.425781 C 465.621094 427.148438 456.136719 427.148438 449.789062 432.691406 L 283.378906 578.527344 C 279.371094 582.46875 277.03125 588.011719 277.769531 593.558594 L 306.292969 732.242188 L 292.0625 746.539062 L 212.832031 637.984375 C 209.628906 633.972656 204.882812 631.636719 200.140625 631.636719 C 197.734375 631.636719 196.132812 632.371094 193.792969 633.171875 L 164.46875 645.867188 L 177.160156 616.539062 C 180.300781 609.457031 177.960938 601.507812 171.617188 597.5 L 63.792969 517.46875 L 78.023438 503.238281 L 216.773438 531.761719 C 222.320312 532.566406 227.863281 530.960938 231.804688 526.21875 L 377.640625 359.742188 C 383.183594 353.394531 383.183594 343.910156 376.839844 337.5625 C 342.769531 303.492188 303.953125 273.363281 262.738281 248.78125 L 107.417969 158.394531 L 140.683594 125.125 L 491.808594 230.542969 C 497.355469 232.144531 503.699219 230.542969 507.640625 226.601562 L 619.40625 114.835938 C 641.652344 93.460938 669.375 78.363281 699.4375 72.816406 L 735.910156 66.472656 C 739.117188 65.667969 740.722656 67.273438 741.457031 68.074219 C 742.257812 68.875 743.863281 71.214844 743.058594 73.621094 Z M 765.238281 45.09375 C 756.554688 36.34375 743.863281 32.402344 731.167969 34.738281 L 694.695312 41.085938 C 657.484375 48.234375 624.214844 65.667969 597.226562 91.855469 L 491.808594 197.273438 L 140.683594 91.855469 C 135.140625 90.253906 128.792969 91.855469 124.851562 95.796875 L 70.140625 150.511719 C 67 153.652344 64.59375 159.195312 65.398438 163.9375 C 66.132812 168.75 68.535156 173.492188 73.28125 175.828125 L 246.101562 277.304688 C 280.972656 297.949219 314.242188 322.464844 343.570312 350.257812 L 213.570312 498.429688 L 75.683594 469.902344 C 70.140625 469.101562 64.59375 470.703125 61.457031 474.644531 L 28.121094 507.980469 C 24.980469 511.121094 23.375 515.863281 23.375 520.675781 C 23.375 525.417969 25.78125 529.359375 29.722656 532.566406 L 142.289062 615.738281 L 131.933594 640.320312 C 127.191406 651.410156 129.59375 664.101562 138.28125 672.050781 C 147.03125 679.9375 158.921875 683.140625 170.011719 678.398438 L 194.597656 668.042969 L 277.835938 780.609375 C 280.972656 784.550781 284.914062 786.957031 289.660156 786.957031 L 291.261719 786.957031 C 295.269531 786.957031 299.210938 785.351562 302.351562 782.214844 L 335.6875 748.945312 C 339.628906 744.9375 341.230469 739.390625 340.429688 734.648438 L 311.90625 596.765625 L 459.273438 466.761719 C 487.066406 496.089844 511.582031 529.359375 532.226562 564.230469 L 633.703125 737.054688 C 636.039062 740.996094 640.78125 744.132812 645.59375 744.9375 C 650.335938 745.738281 655.078125 744.132812 659.019531 740.191406 L 713.734375 685.480469 C 717.675781 681.539062 719.277344 675.191406 717.675781 669.648438 L 613.058594 318.523438 L 717.675781 213.910156 C 744.664062 187.722656 762.097656 153.652344 768.445312 116.441406 L 774.792969 79.964844 C 777.933594 67.273438 773.992188 54.578125 765.304688 45.09375 L 765.238281 45.09375 " fill-opacity="1" fill-rule="nonzero"></path></g></svg>