<svg xmlns="http://www.w3.org/2000/svg" xmlns:xlink="http://www.w3.org/1999/xlink" width="1080" viewBox="0 0 810 809.999993" height="1080" preserveAspectRatio="xMidYMid meet"><defs><clipPath id="929fcf3876"><path d="M 41 59.140625 L 785 59.140625 L 785 776.890625 L 41 776.890625 Z M 41 59.140625 " clip-rule="nonzero"></path></clipPath></defs><g clip-path="url(#929fcf3876)"><path fill="#203f78" d="M 783.824219 765.714844 C 783.863281 765.324219 784.046875 764.988281 784.046875 764.582031 C 784.046875 764.542969 784.027344 764.523438 784.027344 764.507812 C 784.011719 762.964844 783.714844 761.425781 783.117188 759.976562 C 783.117188 759.976562 783.117188 759.957031 783.117188 759.957031 C 782.839844 759.308594 782.320312 758.789062 781.929688 758.191406 C 781.464844 757.488281 781.09375 756.707031 780.5 756.132812 C 780.464844 756.09375 780.445312 756.039062 780.40625 756 L 605.230469 586.5625 L 630.671875 546.082031 C 630.726562 546.007812 630.726562 545.917969 630.761719 545.824219 C 638.375 536.78125 643.148438 525.285156 643.148438 512.660156 L 643.148438 197.585938 C 643.148438 187.671875 642.980469 180.726562 640.550781 173.355469 C 638.078125 165.871094 633.640625 159.316406 625.265625 150.925781 L 572.179688 97.6875 C 561.6875 87.160156 547.890625 77.617188 534.132812 70.726562 C 519.890625 63.578125 505.292969 59.140625 493.875 59.140625 L 331.417969 59.140625 C 319.980469 59.140625 305.402344 63.578125 291.125 70.726562 C 277.363281 77.617188 263.566406 87.160156 253.078125 97.6875 L 199.988281 150.925781 C 191.632812 159.316406 187.195312 165.851562 184.707031 173.355469 C 182.273438 180.707031 182.109375 187.671875 182.109375 197.585938 L 182.109375 512.679688 C 182.109375 525.546875 187.046875 537.246094 194.9375 546.378906 C 194.9375 546.378906 194.9375 546.398438 194.9375 546.398438 L 220.097656 586.527344 L 45.183594 755.742188 C 44.011719 756.835938 43.046875 758.136719 42.398438 759.640625 C 40.429688 763.949219 41.097656 769.203125 44.589844 772.84375 C 47.207031 775.574219 50.808594 776.59375 54.300781 776.261719 L 206.765625 776.316406 C 207.378906 776.410156 207.957031 776.316406 208.566406 776.316406 L 772.144531 776.5 C 772.183594 776.5 772.199219 776.484375 772.238281 776.484375 C 774.484375 776.464844 776.621094 775.628906 778.570312 774.367188 C 779.257812 773.902344 780.035156 773.550781 780.613281 772.953125 C 780.648438 772.917969 780.703125 772.898438 780.742188 772.863281 C 781.242188 772.34375 781.464844 771.691406 781.855469 771.097656 C 782.300781 770.429688 782.839844 769.816406 783.15625 769.054688 C 783.582031 767.980469 783.714844 766.847656 783.824219 765.714844 Z M 742.730469 752.679688 L 623.742188 752.640625 L 554.984375 631.351562 C 561.261719 630.535156 568.019531 628.082031 574.164062 624.386719 C 581.296875 620.097656 587.925781 614.082031 592.214844 607.265625 L 592.289062 607.15625 Z M 234.398438 564.578125 L 590.933594 564.578125 L 572.066406 594.601562 C 569.820312 598.1875 566.089844 601.492188 561.964844 603.980469 C 557.972656 606.375 553.871094 607.859375 550.730469 607.859375 L 274.597656 607.859375 C 271.460938 607.859375 267.355469 606.375 263.34375 603.980469 C 259.1875 601.492188 255.472656 598.1875 253.261719 594.660156 Z M 297.492188 631.742188 L 527.820312 631.742188 L 534.949219 644.332031 L 290.457031 644.125 Z M 276.992188 667.894531 L 548.449219 668.117188 L 564.304688 696.082031 L 261.136719 695.875 Z M 247.65625 719.644531 L 577.785156 719.867188 L 596.355469 752.621094 L 229.03125 752.511719 Z M 206.003906 197.585938 C 206.003906 189.957031 206.097656 184.71875 207.378906 180.820312 C 208.625 177.050781 211.371094 173.226562 216.867188 167.710938 L 269.957031 114.472656 C 278.644531 105.746094 290.195312 97.78125 301.765625 91.988281 C 312.832031 86.453125 323.601562 83 331.417969 83 L 493.855469 83 C 501.675781 83 512.460938 86.433594 523.511719 91.988281 C 535.078125 97.78125 546.609375 105.746094 555.320312 114.472656 L 608.40625 167.710938 C 613.902344 173.226562 616.652344 177.050781 617.894531 180.820312 C 619.175781 184.71875 619.269531 189.957031 619.269531 197.585938 L 619.269531 512.679688 C 619.269531 520.402344 616.132812 527.421875 611.082031 532.472656 L 611.023438 532.527344 C 605.972656 537.578125 598.972656 540.71875 591.230469 540.71875 L 234.027344 540.71875 C 226.300781 540.71875 219.28125 537.578125 214.230469 532.527344 L 214.175781 532.472656 C 209.125 527.421875 205.988281 520.421875 205.988281 512.679688 L 205.988281 197.585938 Z M 233.117188 607.230469 C 237.421875 614.101562 244.015625 620.117188 251.128906 624.386719 C 257.292969 628.101562 264.050781 630.535156 270.347656 631.351562 L 201.679688 752.511719 L 82.820312 752.472656 L 233.058594 607.15625 Z M 244.183594 382.03125 L 387.273438 382.03125 C 393.863281 382.03125 399.210938 376.683594 399.210938 370.089844 L 399.210938 222.597656 C 399.210938 216.007812 393.863281 210.660156 387.273438 210.660156 L 244.183594 210.660156 C 237.589844 210.660156 232.242188 216.007812 232.242188 222.597656 L 232.242188 370.070312 C 232.242188 376.683594 237.589844 382.03125 244.183594 382.03125 Z M 256.121094 234.558594 L 375.332031 234.558594 L 375.332031 358.148438 L 256.121094 358.148438 Z M 438.039062 382.03125 L 581.128906 382.03125 C 587.722656 382.03125 593.070312 376.683594 593.070312 370.089844 L 593.070312 222.597656 C 593.070312 216.007812 587.722656 210.660156 581.128906 210.660156 L 438.039062 210.660156 C 431.449219 210.660156 426.097656 216.007812 426.097656 222.597656 L 426.097656 370.070312 C 426.097656 376.683594 431.449219 382.03125 438.039062 382.03125 Z M 449.980469 234.558594 L 569.191406 234.558594 L 569.191406 358.148438 L 449.980469 358.148438 Z M 482.085938 475.429688 C 482.085938 482.023438 476.734375 487.371094 470.144531 487.371094 L 355.148438 487.371094 C 348.558594 487.371094 343.210938 482.023438 343.210938 475.429688 C 343.210938 468.839844 348.558594 463.488281 355.148438 463.488281 L 470.144531 463.488281 C 476.734375 463.488281 482.085938 468.839844 482.085938 475.429688 Z M 246.207031 488.742188 C 254.839844 497.378906 266.761719 502.726562 279.945312 502.726562 C 293.109375 502.726562 305.050781 497.378906 313.648438 488.726562 C 322.300781 480.070312 327.648438 468.152344 327.648438 455.023438 C 327.648438 442.265625 322.597656 430.660156 314.371094 422.0625 L 313.667969 421.300781 C 305.03125 412.667969 293.109375 407.320312 279.945312 407.320312 C 266.78125 407.320312 254.839844 412.667969 246.242188 421.320312 C 237.589844 429.972656 232.242188 441.894531 232.242188 455.023438 C 232.242188 467.78125 237.292969 479.386719 245.519531 487.980469 Z M 263.046875 438.164062 L 263.105469 438.164062 C 267.410156 433.855469 273.371094 431.179688 279.945312 431.179688 C 286.519531 431.179688 292.480469 433.855469 296.789062 438.164062 L 297.324219 438.664062 C 301.316406 442.898438 303.769531 448.652344 303.769531 455.003906 C 303.769531 461.613281 301.113281 467.574219 296.84375 471.847656 L 296.789062 471.847656 C 292.480469 476.152344 286.519531 478.828125 279.945312 478.828125 C 273.371094 478.828125 267.410156 476.152344 263.105469 471.847656 L 262.566406 471.34375 C 258.574219 467.109375 256.121094 461.355469 256.121094 455.003906 C 256.121094 448.394531 258.757812 442.433594 263.046875 438.164062 Z M 545.367188 407.300781 C 532.199219 407.300781 520.261719 412.648438 511.625 421.285156 L 510.921875 422.046875 C 502.695312 430.640625 497.644531 442.246094 497.644531 455.003906 C 497.644531 468.132812 502.992188 480.054688 511.625 488.726562 C 520.261719 497.359375 532.183594 502.707031 545.367188 502.707031 C 558.53125 502.707031 570.46875 497.359375 579.085938 488.726562 L 579.792969 487.964844 C 588.019531 479.367188 593.070312 467.761719 593.070312 455.003906 C 593.070312 441.875 587.722656 429.957031 579.085938 421.285156 C 570.453125 412.648438 558.53125 407.300781 545.367188 407.300781 Z M 562.746094 471.363281 L 562.207031 471.863281 C 557.898438 476.171875 551.9375 478.847656 545.367188 478.847656 C 538.792969 478.847656 532.832031 476.171875 528.523438 471.863281 L 528.46875 471.863281 C 524.199219 467.59375 521.542969 461.632812 521.542969 455.023438 C 521.542969 448.671875 523.992188 442.917969 527.984375 438.683594 L 528.523438 438.179688 C 532.832031 433.875 538.792969 431.199219 545.367188 431.199219 C 551.9375 431.199219 557.898438 433.875 562.207031 438.179688 L 562.261719 438.179688 C 566.535156 442.453125 569.191406 448.414062 569.191406 455.023438 C 569.191406 461.375 566.738281 467.128906 562.746094 471.363281 Z M 340.871094 159.6875 C 347.070312 165.871094 355.613281 169.695312 364.988281 169.695312 C 374.386719 169.695312 382.925781 165.871094 389.148438 159.652344 L 389.203125 159.597656 C 395.386719 153.394531 399.210938 144.851562 399.210938 135.476562 C 399.210938 126.078125 395.386719 117.539062 389.167969 111.316406 L 389.109375 111.261719 C 382.910156 105.078125 374.367188 101.253906 364.988281 101.253906 C 355.59375 101.253906 347.054688 105.078125 340.851562 111.28125 L 340.796875 111.335938 C 334.613281 117.554688 330.785156 126.097656 330.785156 135.476562 C 330.785156 144.871094 334.613281 153.414062 340.832031 159.632812 Z M 357.636719 128.160156 L 357.691406 128.101562 C 359.53125 126.265625 362.113281 125.132812 365.007812 125.132812 C 367.90625 125.132812 370.488281 126.285156 372.324219 128.101562 L 372.378906 128.160156 C 374.21875 129.996094 375.351562 132.578125 375.351562 135.476562 C 375.351562 138.371094 374.199219 140.953125 372.378906 142.792969 L 372.324219 142.847656 C 370.488281 144.683594 367.90625 145.816406 365.007812 145.816406 C 362.113281 145.816406 359.53125 144.667969 357.691406 142.847656 L 357.636719 142.792969 C 355.796875 140.953125 354.667969 138.371094 354.667969 135.476562 C 354.667969 132.578125 355.796875 129.996094 357.636719 128.160156 Z M 436.183594 159.652344 C 442.402344 165.851562 450.945312 169.679688 460.320312 169.679688 C 469.699219 169.679688 478.222656 165.851562 484.460938 159.652344 L 484.515625 159.597656 C 490.71875 153.394531 494.542969 144.832031 494.542969 135.457031 C 494.542969 126.078125 490.71875 117.554688 484.515625 111.316406 L 484.460938 111.261719 C 478.242188 105.058594 469.699219 101.234375 460.320312 101.234375 C 450.945312 101.234375 442.421875 105.058594 436.183594 111.261719 L 436.125 111.316406 C 429.925781 117.519531 426.097656 126.078125 426.097656 135.457031 C 426.097656 144.832031 429.925781 153.355469 436.125 159.597656 Z M 452.96875 128.160156 L 453.023438 128.101562 C 454.863281 126.265625 457.445312 125.132812 460.339844 125.132812 C 463.238281 125.132812 465.816406 126.285156 467.65625 128.101562 L 467.710938 128.160156 C 469.550781 129.996094 470.683594 132.578125 470.683594 135.476562 C 470.683594 138.371094 469.53125 140.953125 467.710938 142.792969 L 467.65625 142.847656 C 465.816406 144.683594 463.238281 145.816406 460.339844 145.816406 C 457.445312 145.816406 454.863281 144.667969 453.023438 142.847656 L 452.96875 142.792969 C 451.128906 140.953125 449.996094 138.371094 449.996094 135.476562 C 449.996094 132.578125 451.128906 129.996094 452.96875 128.160156 Z M 452.96875 128.160156 " fill-opacity="1" fill-rule="nonzero"></path></g></svg>